<?xml version="1.0" encoding="UTF-8"?>
<svg width="32" height="32" viewBox="0 0 32 32" fill="none" xmlns="http://www.w3.org/2000/svg">
  <!-- Background Circle -->
  <rect width="32" height="32" rx="8" fill="url(#gradient)" />
  
  <!-- CF Letters -->
  <path d="M10 10C10 9.44772 10.4477 9 11 9H17C17.5523 9 18 9.44772 18 10V12C18 12.5523 17.5523 13 17 13H13V15H16C16.5523 15 17 15.4477 17 16V18C17 18.5523 16.5523 19 16 19H13V21H17C17.5523 21 18 21.4477 18 22V24C18 24.5523 17.5523 25 17 25H11C10.4477 25 10 24.5523 10 24V10Z" fill="white"/>
  
  <path d="M20 10C20 9.44772 20.4477 9 21 9H27C27.5523 9 28 9.44772 28 10V12C28 12.5523 27.5523 13 27 13H23V25H21C20.4477 25 20 24.5523 20 24V10Z" fill="white"/>
  
  <!-- Shine Effect -->
  <circle cx="14" cy="11" r="1" fill="#FFD700" />
  <circle cx="24" cy="11" r="1" fill="#FFD700" />
  
  <!-- Gradient Definition -->
  <defs>
    <linearGradient id="gradient" x1="0" y1="0" x2="32" y2="32" gradientUnits="userSpaceOnUse">
      <stop offset="0%" stop-color="#4F46E5" />
      <stop offset="100%" stop-color="#9333EA" />
    </linearGradient>
  </defs>
</svg>
